<svg width="19" height="19" viewBox="0 0 19 19" fill="none" xmlns="http://www.w3.org/2000/svg">
<path d="M0.0820205 5.08202C0.0820205 5.63202 0.532021 6.08202 1.08202 6.08202H5.08202C5.63202 6.08202 6.08202 5.63202 6.08202 5.08202V1.08202C6.08202 0.532021 5.63202 0.0820205 5.08202 0.0820205C4.53202 0.0820205 4.08202 0.532021 4.08202 1.08202V2.67202L1.70202 0.292021C1.60944 0.199439 1.49953 0.125999 1.37856 0.0758936C1.2576 0.0257887 1.12795 9.75509e-10 0.99702 0C0.86609 -9.75509e-10 0.736441 0.0257887 0.615477 0.0758936C0.494513 0.125999 0.384602 0.199439 0.292021 0.292021C0.199439 0.384602 0.125999 0.494513 0.0758936 0.615477C0.0257887 0.736441 -9.75509e-10 0.86609 0 0.99702C9.75509e-10 1.12795 0.0257887 1.2576 0.0758936 1.37856C0.125999 1.49953 0.199439 1.60944 0.292021 1.70202L2.67202 4.08202H1.08202C0.532021 4.08202 0.0820205 4.53202 0.0820205 5.08202ZM17.082 4.08202H15.492L17.872 1.70202C18.059 1.51504 18.164 1.26145 18.164 0.99702C18.164 0.732594 18.059 0.478998 17.872 0.292021C17.685 0.105043 17.4314 0 17.167 0C16.9026 0 16.649 0.105043 16.462 0.292021L14.082 2.67202V1.08202C14.082 0.532021 13.632 0.0820205 13.082 0.0820205C12.532 0.0820205 12.082 0.532021 12.082 1.08202V5.08202C12.082 5.63202 12.532 6.08202 13.082 6.08202H17.082C17.632 6.08202 18.082 5.63202 18.082 5.08202C18.082 4.53202 17.632 4.08202 17.082 4.08202ZM1.08202 14.082H2.67202L0.292021 16.462C0.105043 16.649 0 16.9026 0 17.167C0 17.4314 0.105043 17.685 0.292021 17.872C0.478998 18.059 0.732594 18.164 0.99702 18.164C1.26145 18.164 1.51504 18.059 1.70202 17.872L4.08202 15.492V17.082C4.08202 17.632 4.53202 18.082 5.08202 18.082C5.63202 18.082 6.08202 17.632 6.08202 17.082V13.082C6.08202 12.532 5.63202 12.082 5.08202 12.082H1.08202C0.532021 12.082 0.0820205 12.532 0.0820205 13.082C0.0820205 13.632 0.532021 14.082 1.08202 14.082ZM18.082 13.082C18.082 12.532 17.632 12.082 17.082 12.082H13.082C12.532 12.082 12.082 12.532 12.082 13.082V17.082C12.082 17.632 12.532 18.082 13.082 18.082C13.632 18.082 14.082 17.632 14.082 17.082V15.492L16.462 17.872C16.649 18.059 16.9026 18.164 17.167 18.164C17.4314 18.164 17.685 18.059 17.872 17.872C18.059 17.685 18.164 17.4314 18.164 17.167C18.164 16.9026 18.059 16.649 17.872 16.462L15.492 14.082H17.082C17.632 14.082 18.082 13.632 18.082 13.082Z" fill="#AAAAAA"/>
</svg>
