<svg width="72" height="72" viewBox="0 0 72 72" fill="none" xmlns="http://www.w3.org/2000/svg">
<mask id="mask0_206_2953" style="mask-type:luminance" maskUnits="userSpaceOnUse" x="0" y="0" width="72" height="72">
<path d="M35.8334 69.1667C40.2115 69.1721 44.5476 68.3123 48.5925 66.6368C52.6374 64.9613 56.3114 62.5031 59.4034 59.4034C62.5031 56.3114 64.9613 52.6374 66.6368 48.5925C68.3123 44.5476 69.1721 40.2115 69.1667 35.8334C69.1721 31.4552 68.3123 27.1191 66.6368 23.0742C64.9613 19.0293 62.5031 15.3553 59.4034 12.2634C56.3114 9.16363 52.6374 6.70539 48.5925 5.02988C44.5476 3.35438 40.2115 2.49463 35.8334 2.50003C31.4552 2.49463 27.1191 3.35438 23.0742 5.02988C19.0293 6.70539 15.3553 9.16363 12.2634 12.2634C9.16363 15.3553 6.70539 19.0293 5.02988 23.0742C3.35438 27.1191 2.49463 31.4552 2.50003 35.8334C2.49463 40.2115 3.35438 44.5476 5.02988 48.5925C6.70539 52.6374 9.16363 56.3114 12.2634 59.4034C15.3553 62.5031 19.0293 64.9613 23.0742 66.6368C27.1191 68.3123 31.4552 69.1721 35.8334 69.1667Z" fill="white" stroke="white" stroke-width="5" stroke-linejoin="round"/>
<path d="M22.5 35.8334L32.5 45.8334L52.5 25.8334" stroke="black" stroke-width="5" stroke-linecap="round" stroke-linejoin="round"/>
</mask>
<g mask="url(#mask0_206_2953)">
<path d="M-4.1665 -4.16663H75.8335V75.8334H-4.1665V-4.16663Z" fill="#FC7E2A"/>
</g>
</svg>
