<svg width="18" height="18" viewBox="0 0 18 18" fill="none" xmlns="http://www.w3.org/2000/svg">
<path d="M3.4 16H5C5.28333 16 5.521 16.096 5.713 16.288C5.905 16.48 6.00067 16.7173 6 17C5.99933 17.2827 5.90333 17.5203 5.712 17.713C5.52067 17.9057 5.28333 18.0013 5 18H1C0.716667 18 0.479333 17.904 0.288 17.712C0.0966668 17.52 0.000666667 17.2827 0 17V13C0 12.7167 0.0960001 12.4793 0.288 12.288C0.48 12.0967 0.717333 12.0007 1 12C1.28267 11.9993 1.52033 12.0953 1.713 12.288C1.90567 12.4807 2.00133 12.718 2 13V14.6L4.4 12.2C4.58333 12.0167 4.81667 11.925 5.1 11.925C5.38333 11.925 5.61667 12.0167 5.8 12.2C5.98333 12.3833 6.075 12.6167 6.075 12.9C6.075 13.1833 5.98333 13.4167 5.8 13.6L3.4 16ZM14.6 16L12.2 13.6C12.0167 13.4167 11.925 13.1833 11.925 12.9C11.925 12.6167 12.0167 12.3833 12.2 12.2C12.3833 12.0167 12.6167 11.925 12.9 11.925C13.1833 11.925 13.4167 12.0167 13.6 12.2L16 14.6V13C16 12.7167 16.096 12.4793 16.288 12.288C16.48 12.0967 16.7173 12.0007 17 12C17.2827 11.9993 17.5203 12.0953 17.713 12.288C17.9057 12.4807 18.0013 12.718 18 13V17C18 17.2833 17.904 17.521 17.712 17.713C17.52 17.905 17.2827 18.0007 17 18H13C12.7167 18 12.4793 17.904 12.288 17.712C12.0967 17.52 12.0007 17.2827 12 17C11.9993 16.7173 12.0953 16.48 12.288 16.288C12.4807 16.096 12.718 16 13 16H14.6ZM2 3.4V5C2 5.28333 1.904 5.521 1.712 5.713C1.52 5.905 1.28267 6.00067 1 6C0.717333 5.99933 0.48 5.90333 0.288 5.712C0.0960001 5.52067 0 5.28333 0 5V1C0 0.716667 0.0960001 0.479333 0.288 0.288C0.48 0.0966668 0.717333 0.000666667 1 0H5C5.28333 0 5.521 0.0960001 5.713 0.288C5.905 0.48 6.00067 0.717333 6 1C5.99933 1.28267 5.90333 1.52033 5.712 1.713C5.52067 1.90567 5.28333 2.00133 5 2H3.4L5.8 4.4C5.98333 4.58333 6.075 4.81667 6.075 5.1C6.075 5.38333 5.98333 5.61667 5.8 5.8C5.61667 5.98333 5.38333 6.075 5.1 6.075C4.81667 6.075 4.58333 5.98333 4.4 5.8L2 3.4ZM16 3.4L13.6 5.8C13.4167 5.98333 13.1833 6.075 12.9 6.075C12.6167 6.075 12.3833 5.98333 12.2 5.8C12.0167 5.61667 11.925 5.38333 11.925 5.1C11.925 4.81667 12.0167 4.58333 12.2 4.4L14.6 2H13C12.7167 2 12.4793 1.90433 12.288 1.713C12.0967 1.52167 12.0007 1.284 12 1C11.9993 0.716 12.0953 0.478667 12.288 0.288C12.4807 0.0973334 12.718 0.00133333 13 0H17C17.2833 0 17.521 0.0960001 17.713 0.288C17.905 0.48 18.0007 0.717333 18 1V5C18 5.28333 17.904 5.521 17.712 5.713C17.52 5.905 17.2827 6.00067 17 6C16.7173 5.99933 16.48 5.90333 16.288 5.712C16.096 5.52067 16 5.28333 16 5V3.4Z" fill="#AAAAAA"/>
</svg>
