<svg width="24" height="24" viewBox="0 0 24 24" fill="none" xmlns="http://www.w3.org/2000/svg">
<path d="M6.4 19H8C8.28333 19 8.521 19.096 8.713 19.288C8.905 19.48 9.00067 19.7173 9 20C8.99933 20.2827 8.90333 20.5203 8.712 20.713C8.52067 20.9057 8.28333 21.0013 8 21H4C3.71667 21 3.47933 20.904 3.288 20.712C3.09667 20.52 3.00067 20.2827 3 20V16C3 15.7167 3.096 15.4793 3.288 15.288C3.48 15.0967 3.71733 15.0007 4 15C4.28267 14.9993 4.52033 15.0953 4.713 15.288C4.90567 15.4807 5.00133 15.718 5 16V17.6L7.4 15.2C7.58333 15.0167 7.81667 14.925 8.1 14.925C8.38333 14.925 8.61667 15.0167 8.8 15.2C8.98333 15.3833 9.075 15.6167 9.075 15.9C9.075 16.1833 8.98333 16.4167 8.8 16.6L6.4 19ZM17.6 19L15.2 16.6C15.0167 16.4167 14.925 16.1833 14.925 15.9C14.925 15.6167 15.0167 15.3833 15.2 15.2C15.3833 15.0167 15.6167 14.925 15.9 14.925C16.1833 14.925 16.4167 15.0167 16.6 15.2L19 17.6V16C19 15.7167 19.096 15.4793 19.288 15.288C19.48 15.0967 19.7173 15.0007 20 15C20.2827 14.9993 20.5203 15.0953 20.713 15.288C20.9057 15.4807 21.0013 15.718 21 16V20C21 20.2833 20.904 20.521 20.712 20.713C20.52 20.905 20.2827 21.0007 20 21H16C15.7167 21 15.4793 20.904 15.288 20.712C15.0967 20.52 15.0007 20.2827 15 20C14.9993 19.7173 15.0953 19.48 15.288 19.288C15.4807 19.096 15.718 19 16 19H17.6ZM5 6.4V8C5 8.28333 4.904 8.521 4.712 8.713C4.52 8.905 4.28267 9.00067 4 9C3.71733 8.99933 3.48 8.90333 3.288 8.712C3.096 8.52067 3 8.28333 3 8V4C3 3.71667 3.096 3.47933 3.288 3.288C3.48 3.09667 3.71733 3.00067 4 3H8C8.28333 3 8.521 3.096 8.713 3.288C8.905 3.48 9.00067 3.71733 9 4C8.99933 4.28267 8.90333 4.52033 8.712 4.713C8.52067 4.90567 8.28333 5.00133 8 5H6.4L8.8 7.4C8.98333 7.58333 9.075 7.81667 9.075 8.1C9.075 8.38333 8.98333 8.61667 8.8 8.8C8.61667 8.98333 8.38333 9.075 8.1 9.075C7.81667 9.075 7.58333 8.98333 7.4 8.8L5 6.4ZM19 6.4L16.6 8.8C16.4167 8.98333 16.1833 9.075 15.9 9.075C15.6167 9.075 15.3833 8.98333 15.2 8.8C15.0167 8.61667 14.925 8.38333 14.925 8.1C14.925 7.81667 15.0167 7.58333 15.2 7.4L17.6 5H16C15.7167 5 15.4793 4.90433 15.288 4.713C15.0967 4.52167 15.0007 4.284 15 4C14.9993 3.716 15.0953 3.47867 15.288 3.288C15.4807 3.09733 15.718 3.00133 16 3H20C20.2833 3 20.521 3.096 20.713 3.288C20.905 3.48 21.0007 3.71733 21 4V8C21 8.28333 20.904 8.521 20.712 8.713C20.52 8.905 20.2827 9.00067 20 9C19.7173 8.99933 19.48 8.90333 19.288 8.712C19.096 8.52067 19 8.28333 19 8V6.4Z" fill="black"/>
</svg>
