<svg width="161" height="41" viewBox="0 0 161 41" fill="none" xmlns="http://www.w3.org/2000/svg">
<rect width="161" height="31" rx="8" fill="#444444"/>
<path d="M14.5676 17.328H15.9426V18.34H14.5676V20.265H13.4786V18.34H9.00163V17.438L13.0936 11.19H14.5676V17.328ZM13.4786 12.444L10.3216 17.328H13.4786V12.444ZM20.3297 20.265C19.721 20.265 19.171 20.122 18.6797 19.836C18.1957 19.55 17.8107 19.1247 17.5247 18.56C17.2387 17.988 17.0957 17.3023 17.0957 16.503V14.776C17.0957 13.984 17.2387 13.3057 17.5247 12.741C17.8107 12.1763 18.1957 11.751 18.6797 11.465C19.171 11.1717 19.721 11.025 20.3297 11.025C20.9383 11.025 21.4883 11.1717 21.9797 11.465C22.471 11.751 22.8597 12.1763 23.1457 12.741C23.4317 13.3057 23.5747 13.984 23.5747 14.776V16.503C23.5747 17.3023 23.4317 17.988 23.1457 18.56C22.8597 19.1247 22.471 19.55 21.9797 19.836C21.4883 20.122 20.9383 20.265 20.3297 20.265ZM20.3297 19.275C20.9603 19.275 21.4737 19.0367 21.8697 18.56C22.2657 18.076 22.4637 17.372 22.4637 16.448V14.842C22.4637 13.918 22.2657 13.2177 21.8697 12.741C21.4737 12.257 20.9603 12.015 20.3297 12.015C19.699 12.015 19.1857 12.257 18.7897 12.741C18.3937 13.2177 18.1957 13.918 18.1957 14.842V16.448C18.1957 17.372 18.3937 18.076 18.7897 18.56C19.1857 19.0367 19.699 19.275 20.3297 19.275ZM31.9416 10.651H33.0416V15.04H26.0016V10.651H27.1016V11.96H31.9416V10.651ZM27.1016 12.906V14.105H31.9416V12.906H27.1016ZM24.7256 17.075V16.074H34.3176V17.075H30.0716V18.615H28.9826V17.075H24.7256ZM25.9576 17.944H27.0576V19.671H33.3056V20.694H25.9576V17.944ZM45.4976 20.694V10.486H46.5976V20.694H45.4976ZM39.7116 14.578H43.8256V15.524H38.6116V11.135H43.7266V12.081H39.7116V14.578ZM44.7606 17.438C43.9246 17.5553 42.9199 17.647 41.7466 17.713C41.6806 18.659 41.5779 19.6783 41.4386 20.771L40.3606 20.65C40.4999 19.4987 40.5989 18.5343 40.6576 17.757C40.4376 17.7643 40.1186 17.768 39.7006 17.768H38.0066L37.9516 16.778H39.7996C40.4229 16.778 41.1856 16.7487 42.0876 16.69C42.9896 16.6313 43.8402 16.5543 44.6396 16.459L44.7606 17.438ZM56.1152 20.694V10.486H57.1932V20.694H56.1152ZM53.9042 14.424V10.64H54.9492V20.485H53.9042V15.425H52.7492V15.942C52.7492 17.108 52.5549 17.9697 52.1662 18.527C51.7776 19.0843 51.2606 19.363 50.6152 19.363C49.9626 19.363 49.4382 19.0843 49.0422 18.527C48.6536 17.9697 48.4592 17.108 48.4592 15.942V14.391C48.4592 13.225 48.6536 12.3633 49.0422 11.806C49.4382 11.2487 49.9626 10.97 50.6152 10.97C51.2606 10.97 51.7776 11.2487 52.1662 11.806C52.5549 12.3633 52.7492 13.225 52.7492 14.391V14.424H53.9042ZM51.7042 14.402C51.7042 13.5513 51.6052 12.9353 51.4072 12.554C51.2166 12.1653 50.9489 11.971 50.6042 11.971C50.2596 11.971 49.9882 12.1653 49.7902 12.554C49.5996 12.9353 49.5042 13.5513 49.5042 14.402V15.931C49.5042 16.7743 49.6032 17.3903 49.8012 17.779C49.9992 18.1677 50.2669 18.362 50.6042 18.362C50.9416 18.362 51.2092 18.1677 51.4072 17.779C51.6052 17.3903 51.7042 16.7743 51.7042 15.931V14.402ZM69.5832 14.325H71.1672V15.326H69.5832V20.694H68.4832V10.486H69.5832V14.325ZM63.6102 18.032C64.1675 18.032 64.7835 18.0063 65.4582 17.955C66.1402 17.8963 66.8002 17.8157 67.4382 17.713L67.5702 18.692C66.1695 18.9193 64.7835 19.033 63.4122 19.033H61.6522V11.234H66.6132V12.246H62.7632V18.032H63.6102ZM79.4859 20.694V10.486H80.5859V20.694H79.4859ZM75.6029 12.411C75.6029 13.2837 75.5002 14.105 75.2949 14.875L78.3199 18.494L77.4949 19.198L74.8879 16.052C74.3965 17.1887 73.6339 18.274 72.5999 19.308L71.8299 18.571C72.7612 17.6323 73.4432 16.6753 73.8759 15.7C74.3159 14.7173 74.5359 13.621 74.5359 12.411V11.08H75.6029V12.411ZM90.3138 16.745V18.923H94.5598V19.935H84.9678V18.923H89.2248V16.745H86.1448V11.113H87.2448V12.983H92.2938V11.113H93.3938V16.745H90.3138ZM92.2938 13.973H87.2448V15.755H92.2938V13.973ZM103.274 13.39H101.998V15.469H100.975V10.596H101.998V12.411H103.274V10.486H104.308V15.469H103.274V13.39ZM100.293 14.952C99.3841 15.1133 98.3721 15.194 97.2575 15.194H95.7945V10.915H96.8835V14.193H97.4115C98.3355 14.193 99.2595 14.1233 100.183 13.984L100.293 14.952ZM98.5995 18.846V19.814H104.682V20.749H97.5105V17.944H103.219V17.02H97.4555V16.107H104.308V18.846H98.5995ZM113.079 13.489C112.368 14.3103 111.202 15.0253 109.581 15.634L109.141 14.677C110.41 14.1857 111.341 13.6577 111.935 13.093C112.529 12.5283 112.826 11.9233 112.826 11.278V10.651H113.926V11.278C113.926 11.74 113.835 12.1763 113.651 12.587L117.501 14.71L116.973 15.634L113.079 13.489ZM108.525 16.778H118.117V17.768H113.871V20.804H112.782V17.768H108.525V16.778ZM129.319 10.486H130.408V16.052H129.319V10.486ZM124.798 15.656C123.992 15.656 123.332 15.4507 122.818 15.04C122.312 14.6293 122.059 14.039 122.059 13.269V13.104C122.059 12.3267 122.312 11.7327 122.818 11.322C123.332 10.9113 123.992 10.706 124.798 10.706C125.312 10.706 125.774 10.7977 126.184 10.981C126.602 11.157 126.929 11.4247 127.163 11.784C127.405 12.1433 127.526 12.5833 127.526 13.104V13.269C127.526 13.7897 127.405 14.2297 127.163 14.589C126.929 14.941 126.602 15.2087 126.184 15.392C125.774 15.568 125.312 15.656 124.798 15.656ZM123.148 13.258C123.148 13.72 123.299 14.0757 123.599 14.325C123.907 14.5743 124.307 14.699 124.798 14.699C125.282 14.699 125.671 14.5743 125.964 14.325C126.265 14.0757 126.415 13.72 126.415 13.258V13.115C126.415 12.6457 126.265 12.29 125.964 12.048C125.671 11.7987 125.282 11.674 124.798 11.674C124.307 11.674 123.907 11.7987 123.599 12.048C123.299 12.29 123.148 12.6457 123.148 13.115V13.258ZM131.266 19.99L130.617 20.804L128.659 19.154C128.241 19.77 127.644 20.32 126.866 20.804L124.93 19.154C124.476 19.792 123.871 20.342 123.115 20.804L122.532 19.968C123.86 19.1027 124.523 18.164 124.523 17.152V16.646H125.59V17.152C125.59 17.5113 125.524 17.8743 125.392 18.241L126.921 19.506C127.794 18.7873 128.23 18.0027 128.23 17.152V16.646H129.308V17.152C129.308 17.5333 129.246 17.8963 129.121 18.241L131.266 19.99ZM139.728 10.486H140.828V20.694H139.728V15.425H137.88V15.942C137.88 17.1007 137.631 17.9623 137.132 18.527C136.633 19.0843 135.984 19.363 135.185 19.363C134.378 19.363 133.722 19.0843 133.216 18.527C132.717 17.9623 132.468 17.1007 132.468 15.942V14.391C132.468 13.2323 132.717 12.3743 133.216 11.817C133.722 11.2523 134.378 10.97 135.185 10.97C135.984 10.97 136.633 11.2523 137.132 11.817C137.631 12.3743 137.88 13.2323 137.88 14.391V14.424H139.728V10.486ZM136.791 14.402C136.791 13.5587 136.644 12.9427 136.351 12.554C136.058 12.1653 135.669 11.971 135.185 11.971C134.694 11.971 134.301 12.1653 134.008 12.554C133.715 12.9427 133.568 13.5587 133.568 14.402V15.931C133.568 16.767 133.715 17.383 134.008 17.779C134.309 18.1677 134.701 18.362 135.185 18.362C135.669 18.362 136.058 18.1677 136.351 17.779C136.644 17.383 136.791 16.767 136.791 15.931V14.402ZM146.518 16.481C145.916 16.481 145.388 16.3637 144.934 16.129C144.479 15.887 144.127 15.557 143.878 15.139C143.628 14.721 143.504 14.2517 143.504 13.731C143.504 13.2177 143.628 12.7557 143.878 12.345C144.127 11.9343 144.479 11.6117 144.934 11.377C145.388 11.135 145.916 11.014 146.518 11.014H148.113C148.714 11.014 149.242 11.135 149.697 11.377C150.151 11.6117 150.503 11.9343 150.753 12.345C151.002 12.7557 151.127 13.2177 151.127 13.731C151.127 14.2517 151.002 14.721 150.753 15.139C150.503 15.557 150.151 15.887 149.697 16.129C149.242 16.3637 148.714 16.481 148.113 16.481H146.518ZM146.705 11.993C146.052 11.993 145.539 12.1543 145.165 12.477C144.791 12.7997 144.604 13.2213 144.604 13.742C144.604 14.27 144.791 14.6953 145.165 15.018C145.539 15.3407 146.052 15.502 146.705 15.502H147.915C148.567 15.502 149.084 15.3407 149.466 15.018C149.847 14.6953 150.038 14.27 150.038 13.742C150.038 13.2213 149.847 12.7997 149.466 12.477C149.084 12.1543 148.567 11.993 147.915 11.993H146.705ZM149.664 17.064V18.923H152.106V19.924H142.514V18.923H144.967V17.064H146.045V18.923H148.597V17.064H149.664Z" fill="white"/>
<path d="M99.0922 39.0345C99.4498 39.8087 100.55 39.8087 100.908 39.0345L106.273 27.4193C106.579 26.7567 106.095 26 105.365 26H94.6352C93.9053 26 93.4213 26.7567 93.7273 27.4193L99.0922 39.0345Z" fill="#444444"/>
</svg>
