<svg width="164" height="48" viewBox="0 0 164 48" fill="none" xmlns="http://www.w3.org/2000/svg">
<rect width="164" height="36" rx="8" fill="#444444"/>
<path d="M13.0869 15.207C13.0869 15.9271 13.2282 16.638 13.5107 17.3398C13.7933 18.0417 14.1761 18.666 14.6592 19.2129C15.1423 19.7598 15.6755 20.1699 16.2588 20.4434L15.6162 21.3184C14.9281 20.9629 14.3128 20.4434 13.7705 19.7598C13.2327 19.0716 12.8271 18.2946 12.5537 17.4287C12.2848 18.3402 11.8792 19.1605 11.3369 19.8896C10.7946 20.6188 10.1794 21.168 9.49121 21.5371L8.82129 20.6758C9.40007 20.3887 9.93099 19.958 10.4141 19.3838C10.9017 18.8096 11.2891 18.1556 11.5762 17.4219C11.8633 16.6882 12.0068 15.9499 12.0068 15.207V13.0059H13.0869V15.207ZM18.8975 24.1211H17.8311V16.9844H14.9326V16.0957H17.8311V11.9531H18.8975V24.1211ZM26.4443 12.1035C27.3421 12.1035 28.1123 12.1855 28.7549 12.3496C29.402 12.5137 29.8965 12.7529 30.2383 13.0674C30.5801 13.3818 30.751 13.7624 30.751 14.209C30.751 14.6556 30.5801 15.0384 30.2383 15.3574C29.8965 15.6719 29.4043 15.9111 28.7617 16.0752C28.1191 16.2347 27.3467 16.3145 26.4443 16.3145C25.5465 16.3145 24.7764 16.2347 24.1338 16.0752C23.4912 15.9111 22.999 15.6719 22.6572 15.3574C22.32 15.0384 22.1514 14.6556 22.1514 14.209C22.1514 13.7624 22.32 13.3818 22.6572 13.0674C22.999 12.7529 23.4912 12.516 24.1338 12.3564C24.7764 12.1924 25.5465 12.1081 26.4443 12.1035ZM26.4443 12.9375C25.4326 12.9375 24.6465 13.0492 24.0859 13.2725C23.5299 13.4958 23.2542 13.8079 23.2588 14.209C23.2588 14.6191 23.5345 14.9359 24.0859 15.1592C24.6374 15.3825 25.4098 15.4941 26.4033 15.4941C27.4287 15.4941 28.224 15.3848 28.7891 15.166C29.3587 14.9427 29.6436 14.6237 29.6436 14.209C29.6436 13.8079 29.3633 13.4958 28.8027 13.2725C28.2422 13.0492 27.4561 12.9375 26.4443 12.9375ZM31.9951 17.9961H26.9775V19.1445H30.5732V21.8516H23.3545V23.123H30.9287V23.957H22.2881V21.0586H29.5068V19.9648H22.2607V19.1445H25.9111V17.9961H20.9209V17.1074H31.9951V17.9961ZM36.2744 12.8965C36.8304 12.901 37.3294 13.0605 37.7715 13.375C38.2181 13.6849 38.5736 14.1224 38.8379 14.6875H42.0303V11.9531H43.0967V24.1211H42.0303V19.418H38.9062C38.6465 20.0332 38.2887 20.5117 37.833 20.8535C37.3773 21.1908 36.8577 21.3594 36.2744 21.3594C35.6865 21.3594 35.1624 21.1862 34.7021 20.8398C34.2419 20.4889 33.8818 19.9945 33.6221 19.3564C33.3669 18.7139 33.2393 17.9688 33.2393 17.1211C33.2393 16.278 33.3669 15.5374 33.6221 14.8994C33.8818 14.2614 34.2419 13.7692 34.7021 13.4229C35.1624 13.0719 35.6865 12.8965 36.2744 12.8965ZM36.2744 13.8672C35.8825 13.8672 35.5316 14.0016 35.2217 14.2705C34.9163 14.5394 34.6771 14.9222 34.5039 15.4189C34.3353 15.9111 34.251 16.4785 34.251 17.1211C34.251 17.7728 34.3353 18.347 34.5039 18.8438C34.6771 19.3405 34.9163 19.7256 35.2217 19.999C35.5316 20.2679 35.8825 20.4023 36.2744 20.4023C36.6709 20.4023 37.0218 20.2679 37.3271 19.999C37.637 19.7256 37.8786 19.3428 38.0518 18.8506C38.2249 18.3538 38.3115 17.7773 38.3115 17.1211C38.3115 16.474 38.2249 15.9043 38.0518 15.4121C37.8786 14.9199 37.637 14.5394 37.3271 14.2705C37.0218 14.0016 36.6709 13.8672 36.2744 13.8672ZM39.1455 15.5625C39.264 16.0456 39.3232 16.5651 39.3232 17.1211C39.3232 17.627 39.2754 18.0964 39.1797 18.5293H42.0303V15.5625H39.1455ZM55.5107 24.1074H54.4717V17.7363H52.6943V23.4785H51.6963V12.2266H52.6943V16.834H54.4717V11.9668H55.5107V24.1074ZM50.124 14.332H46.624V20.1973C47.5036 20.1927 48.2601 20.1654 48.8936 20.1152C49.527 20.0651 50.165 19.974 50.8076 19.8418L50.917 20.7305C50.2243 20.8809 49.543 20.9811 48.873 21.0312C48.2031 21.0768 47.3669 21.0996 46.3643 21.0996H45.5576V13.4434H50.124V14.332ZM71.0146 19.4863H69.9756V11.9668H71.0146V19.4863ZM68.8135 19.4453H67.7881V18.748H65.6143V17.9824H67.7881V12.1719H68.8135V19.4453ZM60.6514 16.6973C61.8226 16.6973 62.9688 16.6745 64.0898 16.6289C65.2109 16.5788 66.2204 16.4785 67.1182 16.3281L67.2002 17.0801C66.4255 17.235 65.5231 17.3512 64.4932 17.4287V19.4453H63.4541V17.4902C62.6885 17.5267 61.7952 17.5449 60.7744 17.5449L60.6514 16.6973ZM63.8779 21.0723H69.9482V19.9238H71.0146V23.9434H62.8115V19.9238H63.8779V21.0723ZM69.9482 23.082V21.9199H63.8779V23.082H69.9482ZM63.96 12.3906C64.484 12.3906 64.9466 12.4635 65.3477 12.6094C65.7487 12.7552 66.0586 12.9648 66.2773 13.2383C66.5007 13.5072 66.6123 13.8216 66.6123 14.1816C66.6123 14.5462 66.5007 14.8652 66.2773 15.1387C66.0586 15.4076 65.7487 15.6172 65.3477 15.7676C64.9466 15.9134 64.484 15.9863 63.96 15.9863C63.4268 15.9863 62.9574 15.9134 62.5518 15.7676C62.1507 15.6172 61.8408 15.4076 61.6221 15.1387C61.4033 14.8652 61.2939 14.5462 61.2939 14.1816C61.2939 13.8171 61.4033 13.5003 61.6221 13.2314C61.8408 12.9626 62.1507 12.7552 62.5518 12.6094C62.9574 12.4635 63.4268 12.3906 63.96 12.3906ZM63.96 13.1426C63.445 13.1471 63.0326 13.2428 62.7227 13.4297C62.4173 13.6165 62.2646 13.8672 62.2646 14.1816C62.2646 14.4961 62.415 14.7467 62.7158 14.9336C63.0212 15.1159 63.4268 15.207 63.9326 15.207C64.4476 15.207 64.8577 15.1159 65.1631 14.9336C65.473 14.7513 65.6279 14.5007 65.6279 14.1816C65.6279 13.8672 65.4753 13.6165 65.1699 13.4297C64.8691 13.2428 64.4658 13.1471 63.96 13.1426ZM77.9189 16.5469H79.7646V12.2129H80.79V23.4922H79.7646V17.4355H77.9189V20.8398H73.2568V13.3613H77.9189V16.5469ZM74.2822 19.9785H76.9209V14.2227H74.2822V19.9785ZM83.2236 24.1074H82.1846V11.9668H83.2236V24.1074ZM88.3643 12.4043C88.9658 12.4043 89.5036 12.5205 89.9775 12.7529C90.4561 12.9808 90.8298 13.2998 91.0986 13.71C91.3721 14.1156 91.5088 14.5781 91.5088 15.0977C91.5088 15.6172 91.3721 16.082 91.0986 16.4922C90.8298 16.8978 90.4561 17.2145 89.9775 17.4424C89.5036 17.6657 88.9658 17.7773 88.3643 17.7773C87.7581 17.7773 87.2135 17.6657 86.7305 17.4424C86.252 17.2145 85.876 16.8978 85.6025 16.4922C85.3291 16.082 85.1924 15.6172 85.1924 15.0977C85.1924 14.5781 85.3291 14.1156 85.6025 13.71C85.876 13.2998 86.252 12.9808 86.7305 12.7529C87.2135 12.5205 87.7581 12.4043 88.3643 12.4043ZM88.3643 13.293C87.9632 13.293 87.6009 13.3704 87.2773 13.5254C86.9538 13.6803 86.7008 13.8945 86.5186 14.168C86.3363 14.4414 86.2451 14.7513 86.2451 15.0977C86.2451 15.4486 86.3363 15.7607 86.5186 16.0342C86.7054 16.3031 86.9583 16.5127 87.2773 16.6631C87.6009 16.8135 87.9632 16.8887 88.3643 16.8887C88.7607 16.8887 89.1185 16.8135 89.4375 16.6631C89.7565 16.5127 90.0072 16.3031 90.1895 16.0342C90.3763 15.7607 90.4697 15.4486 90.4697 15.0977C90.4697 14.7513 90.3786 14.4414 90.1963 14.168C90.014 13.8945 89.7611 13.6803 89.4375 13.5254C89.1185 13.3704 88.7607 13.293 88.3643 13.293ZM94.9541 18.1875H93.874V11.9668H94.9541V18.1875ZM94.9541 21.7148H88.1318V23.0684H95.3779V23.9434H87.0791V20.9082H93.8877V19.6504H87.0518V18.7891H94.9541V21.7148ZM107.026 24.1211H105.96V11.9531H107.026V24.1211ZM100.573 12.8965C101.175 12.8965 101.71 13.0719 102.18 13.4229C102.649 13.7738 103.016 14.2682 103.28 14.9062C103.545 15.5443 103.677 16.2826 103.677 17.1211C103.677 17.9688 103.545 18.7139 103.28 19.3564C103.016 19.9945 102.649 20.4889 102.18 20.8398C101.71 21.1862 101.175 21.3594 100.573 21.3594C99.9762 21.3594 99.4408 21.1862 98.9668 20.8398C98.4974 20.4889 98.1305 19.9945 97.8662 19.3564C97.6019 18.7139 97.4697 17.9688 97.4697 17.1211C97.4697 16.2826 97.6019 15.5443 97.8662 14.9062C98.1305 14.2682 98.4974 13.7738 98.9668 13.4229C99.4408 13.0719 99.9762 12.8965 100.573 12.8965ZM100.573 13.8672C100.168 13.8672 99.8076 14.0016 99.4932 14.2705C99.1833 14.5394 98.9417 14.9199 98.7686 15.4121C98.5954 15.9043 98.5088 16.474 98.5088 17.1211C98.5088 17.7773 98.5954 18.3538 98.7686 18.8506C98.9417 19.3428 99.1833 19.7256 99.4932 19.999C99.8076 20.2679 100.168 20.4023 100.573 20.4023C100.979 20.4023 101.339 20.2679 101.653 19.999C101.968 19.7256 102.212 19.3428 102.385 18.8506C102.562 18.3538 102.651 17.7773 102.651 17.1211C102.651 16.474 102.562 15.9043 102.385 15.4121C102.207 14.9199 101.961 14.5394 101.646 14.2705C101.337 14.0016 100.979 13.8672 100.573 13.8672ZM115.038 20.6074H117.253V19.0898H118.251V23.9434H114.026V19.0898H115.038V20.6074ZM117.253 23.0957V21.4277H115.038V23.0957H117.253ZM121.71 20.0332C121.705 20.4707 121.79 20.8991 121.963 21.3184C122.136 21.7376 122.391 22.1136 122.729 22.4463C123.066 22.779 123.474 23.0365 123.952 23.2188L123.405 24.0391C122.863 23.8203 122.403 23.5104 122.024 23.1094C121.651 22.7129 121.366 22.2526 121.17 21.7285C120.969 22.2435 120.68 22.7015 120.302 23.1025C119.928 23.5081 119.481 23.8203 118.962 24.0391L118.415 23.2188C118.889 23.0228 119.295 22.7562 119.632 22.4189C119.969 22.0771 120.224 21.7012 120.397 21.291C120.571 20.8763 120.657 20.457 120.657 20.0332V19.0078H121.71V20.0332ZM115.954 12.5C116.496 12.5 116.989 12.5957 117.431 12.7871C117.877 12.9785 118.242 13.252 118.524 13.6074C118.812 13.9583 118.992 14.3639 119.064 14.8242H121.601V11.9668H122.694V18.3926H121.601V15.7129H119.071C119.003 16.1823 118.827 16.597 118.545 16.957C118.262 17.3171 117.896 17.5973 117.444 17.7979C116.998 17.9938 116.501 18.0918 115.954 18.0918C115.348 18.0918 114.806 17.9733 114.327 17.7363C113.849 17.4993 113.475 17.1689 113.206 16.7451C112.942 16.3213 112.81 15.8359 112.81 15.2891C112.81 14.7467 112.942 14.2637 113.206 13.8398C113.475 13.416 113.849 13.0879 114.327 12.8555C114.806 12.6185 115.348 12.5 115.954 12.5ZM115.954 13.4023C115.549 13.4023 115.184 13.4821 114.86 13.6416C114.541 13.8011 114.293 14.0244 114.115 14.3115C113.938 14.5986 113.849 14.9245 113.849 15.2891C113.849 15.6536 113.938 15.9818 114.115 16.2734C114.293 16.5605 114.541 16.7861 114.86 16.9502C115.184 17.1097 115.549 17.1895 115.954 17.1895C116.36 17.1895 116.722 17.1097 117.041 16.9502C117.36 16.7861 117.611 16.5605 117.793 16.2734C117.98 15.9818 118.073 15.6536 118.073 15.2891C118.073 14.9245 117.98 14.5986 117.793 14.3115C117.611 14.0244 117.36 13.8011 117.041 13.6416C116.722 13.4821 116.36 13.4023 115.954 13.4023ZM134.124 16.7656H136.147V17.668H134.124V24.1211H133.044V11.9531H134.124V16.7656ZM130.925 14.0176H126.317V20.1699H126.536C127.625 20.1699 128.578 20.1403 129.394 20.0811C130.214 20.0173 131.048 19.9056 131.896 19.7461L132.019 20.6758C131.139 20.8353 130.282 20.9447 129.448 21.0039C128.619 21.0586 127.625 21.0859 126.468 21.0859H126.208H125.237V13.1289H130.925V14.0176ZM142.956 14.1133H145.8V11.9805H146.894V20.8262H145.8V17.5996H142.956V18.6934H137.392V13.0195H142.956V14.1133ZM138.431 17.8184H141.917V13.8945H138.431V17.8184ZM147.181 23.834H139.019V20.0469H140.099V22.9453H147.181V23.834ZM145.8 16.7109V15.002H142.956V16.7109H145.8ZM151.433 19.8828C151.433 19.3405 151.501 18.8893 151.638 18.5293C151.774 18.1647 151.938 17.8776 152.13 17.668C152.326 17.4583 152.576 17.2305 152.882 16.9844C153.091 16.8203 153.256 16.679 153.374 16.5605C153.497 16.4421 153.597 16.3008 153.675 16.1367C153.757 15.9727 153.798 15.7812 153.798 15.5625C153.798 15.2617 153.723 14.9974 153.572 14.7695C153.426 14.5417 153.221 14.3662 152.957 14.2432C152.693 14.1201 152.39 14.0586 152.048 14.0586C151.501 14.0586 151.073 14.2158 150.763 14.5303C150.453 14.8402 150.298 15.2754 150.298 15.8359H149.067C149.067 15.248 149.188 14.7331 149.43 14.291C149.671 13.849 150.015 13.5094 150.462 13.2725C150.909 13.0309 151.437 12.9102 152.048 12.9102C152.622 12.9102 153.135 13.0173 153.586 13.2314C154.037 13.4411 154.39 13.7464 154.646 14.1475C154.901 14.5485 155.028 15.0202 155.028 15.5625C155.028 15.9134 154.974 16.2142 154.864 16.4648C154.759 16.7155 154.63 16.9206 154.475 17.0801C154.324 17.2396 154.117 17.4264 153.853 17.6406C153.588 17.8548 153.379 18.0439 153.224 18.208C153.069 18.3721 152.937 18.584 152.827 18.8438C152.718 19.099 152.663 19.4089 152.663 19.7734V20.1016H151.433V19.8828ZM152.048 23.1094C151.802 23.1094 151.599 23.0296 151.439 22.8701C151.28 22.7106 151.2 22.5078 151.2 22.2617C151.2 22.0156 151.28 21.8128 151.439 21.6533C151.599 21.4938 151.802 21.4141 152.048 21.4141C152.294 21.4141 152.497 21.4938 152.656 21.6533C152.816 21.8128 152.896 22.0156 152.896 22.2617C152.896 22.5078 152.816 22.7106 152.656 22.8701C152.497 23.0296 152.294 23.1094 152.048 23.1094Z" fill="white"/>
<path d="M8.3291 25.5977H96.5264V26.418H8.3291V25.5977Z" fill="white"/>
<path d="M100.092 46.0345C100.45 46.8087 101.55 46.8087 101.908 46.0345L107.273 34.4193C107.579 33.7567 107.095 33 106.365 33H95.6352C94.9053 33 94.4213 33.7567 94.7273 34.4193L100.092 46.0345Z" fill="#444444"/>
</svg>
